<svg id="SvgjsSvg1041" width="288" height="288" xmlns="http://www.w3.org/2000/svg" version="1.1" xmlns:xlink="http://www.w3.org/1999/xlink" xmlns:svgjs="http://svgjs.com/svgjs"><defs id="SvgjsDefs1042"></defs><g id="SvgjsG1043"><svg xmlns="http://www.w3.org/2000/svg" fill="none" viewBox="0 0 102 115" width="288" height="288"><path fill="#e0aa3e" d="M29.6627 103.745C27.691 104.448 25.635 104.887 23.5481 105.051C21.2154 105.218 18.8761 104.832 16.7211 103.923C14.5243 102.952 12.6243 101.416 11.215 99.4709L10.28 98.0907L9.52308 96.6065C8.99491 95.5196 8.61552 94.3664 8.39514 93.1782C7.84981 89.0711 8.3606 84.8928 9.87927 81.038C11.1429 77.5645 12.6865 74.1993 14.4949 70.9756C18.0265 64.6297 22.3394 58.7513 27.3326 53.4777C32.2779 48.1553 37.8493 43.451 43.9252 39.4675C48.407 36.5003 53.2244 34.0742 58.2767 32.2398C63.501 30.3439 69.0516 29.5113 74.6022 29.791C79.6009 30.0925 84.4872 31.3999 88.9686 33.6349C91.3143 34.7596 93.4841 36.2194 95.4097 37.9686C97.445 39.8521 99.0454 42.1565 100.1 44.7214C101.115 47.223 101.619 49.9025 101.584 52.6021C101.541 55.1087 101.192 57.6008 100.545 60.0227C99.2818 64.6666 97.3893 69.1157 94.9199 73.2463C92.5645 77.2568 89.8524 81.0467 86.8166 84.5702C83.8034 88.0385 80.5713 91.3102 77.14 94.3655C70.3072 100.531 62.5372 105.571 54.1212 109.296C52.2264 110.124 50.2894 110.852 48.3182 111.478C47.3239 111.774 46.3147 112.056 45.35 112.309C44.0162 112.607 42.6493 112.732 41.2835 112.68C39.8866 112.622 38.5126 112.305 37.2318 111.745C35.9528 111.227 34.9653 110.175 34.5307 108.865C33.8183 106.239 35.4954 103.567 37.3802 101.445C37.6028 101.192 37.87 100.881 38.0629 100.688L38.612 100.139C38.9831 99.7677 39.3541 99.3967 39.7251 99.0554C40.4672 98.3281 41.2093 97.6603 42.0107 96.9776C43.4948 95.627 45.1422 94.3655 46.7599 93.1337C49.9866 90.6858 53.3621 88.4405 56.8668 86.4106C61.4162 83.7019 66.2744 81.5493 71.3371 79.9991C74.0051 79.2053 76.7626 78.7515 79.5443 78.6486C82.5525 78.5219 85.5505 79.0748 88.3155 80.2663C91.1477 81.5945 93.527 83.726 95.1574 86.3957L96.2556 88.3548C96.5956 89.0786 96.8785 89.8279 97.1016 90.5958C97.5182 92.0452 97.7525 93.5409 97.7991 95.0482C97.8954 97.8495 97.5293 100.647 96.7157 103.33C95.9696 105.959 94.8924 108.482 93.51 110.839C91.6697 113.808 90.1559 114.564 89.8887 114.149C89.6216 113.733 90.141 112.086 90.6308 109.474C91.3 106.053 91.465 102.553 91.1205 99.085C90.99 97.1065 90.5752 95.1571 89.8887 93.2969C89.1096 91.6648 87.9973 90.2138 86.6236 89.0375C85.3265 88.0227 83.7958 87.3491 82.1712 87.0784C80.2014 86.7814 78.1965 86.8065 76.2347 87.1526C71.66 88.0135 67.2386 89.5491 63.115 91.7089C58.7741 93.9133 54.6241 96.4748 50.7077 99.367C48.7189 100.851 46.7896 102.335 45.0086 103.894C44.5634 104.294 44.1033 104.695 43.7026 105.096L42.9012 105.868C42.7379 106.016 42.7824 105.957 42.7231 106.031C42.6637 106.105 42.7231 106.253 42.9012 106.268H43.1535L43.7768 106.135L44.6079 105.927C45.721 105.63 46.8489 105.274 47.962 104.873C52.5264 103.151 56.8985 100.958 61.0075 98.3281C69.3607 92.892 76.8289 86.2047 83.1508 78.5002C86.9253 73.9034 90.0054 68.7782 92.293 63.2878C94.4747 57.9153 95.5136 51.9194 93.51 47.4225C92.4787 45.1227 90.7767 43.188 88.6272 41.8718C87.4635 41.1284 86.2484 40.4688 84.9911 39.8979C84.3232 39.6456 83.6702 39.3488 83.0023 39.0965L80.9691 38.4583C75.3717 37.0131 69.499 37.0131 63.9016 38.4583C57.4659 40.0769 51.3631 42.8093 45.8694 46.532C40.2521 50.293 35.0965 54.7015 30.5087 59.6665C25.8612 64.6043 21.8705 70.1214 18.6356 76.081C17.077 79.0102 15.8285 82.0941 14.9105 85.2826C14.0645 88.3845 13.8419 91.5457 14.9995 93.8461C15.7126 95.4199 16.8415 96.7694 18.2646 97.7493C18.9589 98.168 19.7153 98.4736 20.5056 98.6546C21.3545 98.8298 22.2238 98.8848 23.088 98.8179C27.0108 98.2968 30.7597 96.8745 34.0409 94.6623C41.0905 90.3435 47.3981 84.4515 53.4088 78.5002C62.6301 69.5429 70.6158 59.396 77.1549 48.3278C80.3177 42.8653 82.7667 37.0195 84.442 30.9338L84.9911 28.7224L85.3918 26.4369C85.6874 24.9692 85.866 23.4804 85.9261 21.9845C86.1239 19.2526 85.4873 16.5252 84.1006 14.1631C82.977 12.5261 81.3831 11.2685 79.5295 10.5567C77.4766 9.80557 75.3176 9.38479 73.1329 9.31002C68.4734 9.16327 63.8178 9.70335 59.3156 10.9129C54.7063 12.0846 50.1995 13.6282 45.8397 15.5285C41.513 17.5013 37.3493 19.8139 33.3879 22.4446C29.8705 24.7747 26.5906 27.3422 23.2513 30.0433C20.1494 32.5515 17.6264 34.7183 15.5041 36.5438C13.3818 38.3693 11.6009 39.7792 10.1019 40.922C8.06135 42.6642 5.70267 43.9948 3.15616 44.8401C2.32234 45.1544 1.46343 45.3977 0.588617 45.5673C-0.479957 45.5673 -0.0644003 44.2464 1.59783 41.6937C4.2175 37.8752 7.16207 34.2901 10.3987 30.9783C16.8286 24.1901 23.9799 18.1237 31.7257 12.8868C33.7292 11.5659 35.7922 10.3044 37.9293 9.13193C40.0891 7.92225 42.3137 6.83224 44.5931 5.86684C49.1687 3.95875 53.9075 2.46854 58.7517 1.41445C63.8665 0.232523 69.124 -0.212267 74.3647 0.0935747C77.3542 0.308553 80.2853 1.03128 83.032 2.23072C86.2164 3.60822 88.9515 5.84976 90.9276 8.70153C92.7959 11.4929 93.9152 14.7177 94.1778 18.0664C94.4222 20.9217 94.2825 23.7968 93.7623 26.615C92.8919 31.6815 91.4428 36.6313 89.4435 41.3672C86.5095 48.1769 82.8419 54.6463 78.5054 60.6609C74.2655 66.5443 69.6187 72.1234 64.5991 77.3574C59.6349 82.5543 54.3932 87.4789 48.897 92.1096C46.0649 94.4889 43.0912 96.6944 39.9923 98.714C36.7921 100.859 33.3435 102.609 29.7221 103.923L29.6627 103.745Z" class="color89F88B svgShape"></path></svg></g></svg>