<svg id="SvgjsSvg1046" width="288" height="288" xmlns="http://www.w3.org/2000/svg" version="1.1" xmlns:xlink="http://www.w3.org/1999/xlink" xmlns:svgjs="http://svgjs.com/svgjs"><defs id="SvgjsDefs1047"></defs><g id="SvgjsG1048"><svg xmlns="http://www.w3.org/2000/svg" fill="none" viewBox="0 0 247 218" width="288" height="288"><path stroke="#e0aa3e" stroke-linecap="round" stroke-width="3" d="M225.907 173.957C225.907 173.957 193.651 181.284 174.317 174.461C148.631 165.397 152.984 123.901 164.456 109.431C175.929 94.9606 191.89 103.32 200.616 111.048C209.343 118.775 208.937 135.429 196.816 146.593C184.695 157.757 145.55 168.082 115.484 144.861C85.4188 121.64 81.3892 94.347 105.354 84.6176C114.131 81.0544 122.186 81.5904 129.579 83.7174C136.971 85.8445 147.5 97.559 138.013 109.842C128.527 122.125 87.8107 126.535 67.6152 107.889C49.5276 91.1898 40.5529 63.2322 52.2295 48.1138C63.9062 32.9955 78.1725 44.0141 81.2381 46.3817C84.3036 48.7493 91.762 56.3966 84.8387 68.7727C77.9153 81.1487 44.589 112.356 2.48705 70.5984" class="colorStroke89F88B svgStroke"></path></svg></g></svg>