<svg id="SvgjsSvg1051" width="288" height="288" xmlns="http://www.w3.org/2000/svg" version="1.1" xmlns:xlink="http://www.w3.org/1999/xlink" xmlns:svgjs="http://svgjs.com/svgjs"><defs id="SvgjsDefs1052"></defs><g id="SvgjsG1053"><svg xmlns="http://www.w3.org/2000/svg" fill="none" viewBox="0 0 141 161" width="288" height="288"><path fill="#e0aa3e" d="M95.6672 146.875C93.738 144.803 89.0407 139.543 83.299 132.447C80.4523 128.916 77.2758 124.916 74.05 120.676C70.8241 116.436 67.2561 112.199 63.9172 107.815C57.1992 99.0546 50.8839 90.1368 46.2503 82.9402C41.6167 75.7437 38.6283 70.3344 37.7902 68.6495L36.4787 66.0413L35.6548 64.3033C35.5948 64.1735 35.4406 63.8287 35.457 63.909C35.3707 63.8412 35.3214 63.7366 35.324 63.6268C35.362 63.4852 35.5212 63.5279 35.6356 63.5965C35.4211 63.4063 36.5045 64.2465 36.9124 64.5645L38.4638 65.8525C38.6299 66.0109 40.7873 67.7268 43.9984 70.4648C47.2095 73.2027 51.511 76.8966 55.8781 80.9115C64.577 88.9319 74.2147 97.4124 77.4378 99.9639C77.8457 100.282 79.4843 101.669 82.1993 103.781C83.5279 104.839 85.169 106.075 87.0389 107.448L90.0513 109.583L91.6595 110.659C92.275 111.051 92.6475 111.36 93.8444 112.06C95.8502 113.326 97.9324 114.466 100.079 115.475C101.133 115.928 102.269 116.574 103.286 116.884L106.38 117.865C107.371 118.131 108.298 118.208 109.26 118.371C110.221 118.534 111.129 118.474 112.003 118.537C112.422 118.571 112.844 118.516 113.241 118.376L114.419 118.085C114.788 117.956 115.144 117.791 115.48 117.592C115.858 117.428 116.214 117.218 116.54 116.965C117.131 116.341 117.493 115.536 117.569 114.681C117.667 113.904 117.66 113.118 117.551 112.343C117.249 110.274 116.569 108.279 115.543 106.457C114.229 104.008 112.783 101.633 111.211 99.3411L108.712 95.7131L106.974 93.351C98.2812 81.5582 89.2078 69.91 82.1155 60.4236C75.0232 50.9372 69.9049 43.497 68.2927 40.8082C67.1338 38.9046 64.5377 35.0039 61.543 29.9723L59.5845 26.7355C59.1441 25.9727 58.6825 25.1473 58.2576 24.2559C57.1949 22.363 56.5798 20.252 56.4595 18.0846C56.4777 17.5218 56.6254 16.9708 56.891 16.4744C57.1459 15.9881 57.6331 15.6672 58.1806 15.6251C59.2055 15.6254 60.2124 15.8952 61.1002 16.4075C62.8335 17.4878 64.4719 18.7135 65.9976 20.0714L68.4403 21.9965L71.3095 24.4532L75.6691 27.8593C76.165 28.3197 76.8356 28.5435 77.5087 28.4731C78.1817 28.4026 78.7915 28.0449 79.1813 27.4917C79.9375 26.5382 79.9546 25.1944 79.223 24.222C77.3197 22.1948 75.484 19.8444 73.3541 17.8134L71.5886 16.0507C70.8237 15.2957 70.0989 14.5326 69.2584 13.7763C67.7034 12.274 66.0608 10.8649 64.3393 9.55662C61.5854 7.36561 58.3331 5.88834 54.8712 5.25593C53.3134 4.94118 51.6945 5.17786 50.292 5.92541C48.9022 6.91684 47.918 8.37759 47.5211 10.038C46.7735 13.2958 46.9314 16.696 47.9778 19.8704C48.6673 22.31 49.5887 24.678 50.7294 26.942C51.286 28.1911 51.9536 29.451 52.6825 30.7652L54.3617 33.6996C58.6682 41.0551 64.0515 48.8508 69.2219 56.0964C79.7539 70.5819 89.5059 83.0947 90.1501 84.1586C93.7209 89.0222 97.2693 93.8987 100.72 98.787C101.792 100.307 101.886 100.522 102.298 101.106L103.297 102.758C103.921 103.734 104.41 104.791 104.75 105.898C104.694 106.11 104.821 106.486 104.561 106.606C104.26 106.634 103.957 106.623 103.659 106.573C103.055 106.473 102.463 106.314 101.89 106.099C100.873 105.687 99.8977 105.178 98.9782 104.579L98.0951 103.982L96.5058 102.835C94.8975 101.76 93.464 100.598 91.9502 99.4526C88.9369 97.109 86.0064 94.598 83.0806 92.0693C77.2658 86.9457 71.6105 81.5805 66.0013 76.1139C60.7008 71.0523 55.6355 65.7504 50.3259 60.4398C49.0058 59.1379 47.6503 57.8264 46.2548 56.5232C45.524 55.8533 44.9688 55.3063 43.9527 54.4271C42.9366 53.548 42.2589 52.8922 40.7464 51.6715L38.6974 50.1173L36.6019 48.9489L35.5582 48.3848L34.5142 48.1051C33.8599 47.8634 33.1846 47.6824 32.4971 47.5646C29.8212 47.054 27.051 47.5553 24.7238 48.9713C23.0715 50.0777 21.8306 51.6984 21.1936 53.5821C20.5502 55.5212 20.3486 57.5795 20.6034 59.6066L20.8456 61.3214C20.9559 61.9009 21.1546 62.5042 21.3179 63.0979C21.6645 64.3122 22.0791 65.506 22.5597 66.6737C23.0032 67.7787 23.4834 68.8177 23.9118 69.7669L24.8782 71.7517C27.4976 76.7427 30.4153 81.5714 33.6155 86.2114C39.8515 95.3546 46.5543 103.959 53.4733 112.394C57.4088 117.241 61.4214 121.989 65.5113 126.638C69.7811 131.158 74.1052 135.616 78.5558 139.957C83.8468 145.054 89.3504 149.923 95.0206 154.667C97.9106 157.23 101.377 159.056 105.125 159.991C106.576 160.38 104.507 158.119 102.155 155.08C99.8017 152.041 96.9623 148.341 95.6672 146.875Z" class="color89F88B svgShape"></path></svg></g></svg>